<mxfile host="app.diagrams.net" modified="2024-06-07T16:26:12.448Z" agent="Mozilla/5.0 (Windows NT 10.0; Win64; x64) AppleWebKit/537.36 (KHTML, like Gecko) Chrome/96.0.4664.45 Safari/537.36 Edg/96.0.1054.29" etag="GWNxKy1JrNOMVrTPVv9W" version="24.5.1" type="device">
  <diagram name="Page-1" id="Bw8waUVS4aif2_wFkWzH">
    <mxGraphModel dx="1682" dy="982" grid="1" gridSize="10" guides="1" tooltips="1" connect="1" arrows="1" fold="1" page="1" pageScale="1" pageWidth="850" pageHeight="1100" math="0" shadow="0">
      <root>
        <mxCell id="0" />
        <mxCell id="1" parent="0" />
        <mxCell id="_7aBfbdObMz06y_fivO7-9" value="" style="edgeStyle=orthogonalEdgeStyle;rounded=0;orthogonalLoop=1;jettySize=auto;html=1;" parent="1" source="_7aBfbdObMz06y_fivO7-3" target="_7aBfbdObMz06y_fivO7-8" edge="1">
          <mxGeometry relative="1" as="geometry" />
        </mxCell>
        <mxCell id="_7aBfbdObMz06y_fivO7-3" value="START" style="rounded=1;whiteSpace=wrap;html=1;" parent="1" vertex="1">
          <mxGeometry x="495" y="470" width="120" height="40" as="geometry" />
        </mxCell>
        <mxCell id="_7aBfbdObMz06y_fivO7-13" value="" style="edgeStyle=orthogonalEdgeStyle;rounded=0;orthogonalLoop=1;jettySize=auto;html=1;" parent="1" source="_7aBfbdObMz06y_fivO7-8" target="_7aBfbdObMz06y_fivO7-12" edge="1">
          <mxGeometry relative="1" as="geometry" />
        </mxCell>
        <mxCell id="_7aBfbdObMz06y_fivO7-8" value="READ INPUT" style="shape=parallelogram;perimeter=parallelogramPerimeter;whiteSpace=wrap;html=1;fixedSize=1;rounded=1;" parent="1" vertex="1">
          <mxGeometry x="495" y="550" width="120" height="40" as="geometry" />
        </mxCell>
        <mxCell id="_7aBfbdObMz06y_fivO7-15" value="" style="edgeStyle=orthogonalEdgeStyle;rounded=0;orthogonalLoop=1;jettySize=auto;html=1;" parent="1" source="_7aBfbdObMz06y_fivO7-12" target="_7aBfbdObMz06y_fivO7-14" edge="1">
          <mxGeometry relative="1" as="geometry" />
        </mxCell>
        <mxCell id="_7aBfbdObMz06y_fivO7-18" value="TRUE" style="edgeLabel;html=1;align=center;verticalAlign=middle;resizable=0;points=[];" parent="_7aBfbdObMz06y_fivO7-15" vertex="1" connectable="0">
          <mxGeometry x="-0.035" y="1" relative="1" as="geometry">
            <mxPoint as="offset" />
          </mxGeometry>
        </mxCell>
        <mxCell id="_7aBfbdObMz06y_fivO7-20" value="" style="edgeStyle=orthogonalEdgeStyle;rounded=0;orthogonalLoop=1;jettySize=auto;html=1;" parent="1" source="_7aBfbdObMz06y_fivO7-12" target="_7aBfbdObMz06y_fivO7-19" edge="1">
          <mxGeometry relative="1" as="geometry" />
        </mxCell>
        <mxCell id="_7aBfbdObMz06y_fivO7-12" value="INPUT == &quot;&quot;" style="rhombus;whiteSpace=wrap;html=1;rounded=1;" parent="1" vertex="1">
          <mxGeometry x="495" y="630" width="120" height="80" as="geometry" />
        </mxCell>
        <mxCell id="_7aBfbdObMz06y_fivO7-14" value="END" style="rounded=1;whiteSpace=wrap;html=1;" parent="1" vertex="1">
          <mxGeometry x="695" y="650" width="120" height="40" as="geometry" />
        </mxCell>
        <mxCell id="_7aBfbdObMz06y_fivO7-22" value="" style="edgeStyle=orthogonalEdgeStyle;rounded=0;orthogonalLoop=1;jettySize=auto;html=1;" parent="1" source="_7aBfbdObMz06y_fivO7-19" target="_7aBfbdObMz06y_fivO7-21" edge="1">
          <mxGeometry relative="1" as="geometry" />
        </mxCell>
        <mxCell id="_7aBfbdObMz06y_fivO7-19" value="READ N1" style="shape=parallelogram;perimeter=parallelogramPerimeter;whiteSpace=wrap;html=1;fixedSize=1;rounded=1;" parent="1" vertex="1">
          <mxGeometry x="495" y="750" width="120" height="40" as="geometry" />
        </mxCell>
        <mxCell id="_7aBfbdObMz06y_fivO7-24" value="" style="edgeStyle=orthogonalEdgeStyle;rounded=0;orthogonalLoop=1;jettySize=auto;html=1;" parent="1" source="_7aBfbdObMz06y_fivO7-21" target="_7aBfbdObMz06y_fivO7-23" edge="1">
          <mxGeometry relative="1" as="geometry" />
        </mxCell>
        <mxCell id="_7aBfbdObMz06y_fivO7-21" value="READ N2" style="shape=parallelogram;perimeter=parallelogramPerimeter;whiteSpace=wrap;html=1;fixedSize=1;rounded=1;" parent="1" vertex="1">
          <mxGeometry x="495" y="830" width="120" height="40" as="geometry" />
        </mxCell>
        <mxCell id="_7aBfbdObMz06y_fivO7-26" value="" style="edgeStyle=orthogonalEdgeStyle;rounded=0;orthogonalLoop=1;jettySize=auto;html=1;" parent="1" source="_7aBfbdObMz06y_fivO7-23" target="_7aBfbdObMz06y_fivO7-25" edge="1">
          <mxGeometry relative="1" as="geometry" />
        </mxCell>
        <mxCell id="_7aBfbdObMz06y_fivO7-23" value="READ OPERATION" style="shape=parallelogram;perimeter=parallelogramPerimeter;whiteSpace=wrap;html=1;fixedSize=1;rounded=1;" parent="1" vertex="1">
          <mxGeometry x="475" y="910" width="160" height="40" as="geometry" />
        </mxCell>
        <mxCell id="_7aBfbdObMz06y_fivO7-28" value="" style="edgeStyle=orthogonalEdgeStyle;rounded=0;orthogonalLoop=1;jettySize=auto;html=1;" parent="1" source="_7aBfbdObMz06y_fivO7-25" target="_7aBfbdObMz06y_fivO7-27" edge="1">
          <mxGeometry relative="1" as="geometry" />
        </mxCell>
        <mxCell id="_7aBfbdObMz06y_fivO7-29" value="TRUE" style="edgeLabel;html=1;align=center;verticalAlign=middle;resizable=0;points=[];" parent="_7aBfbdObMz06y_fivO7-28" vertex="1" connectable="0">
          <mxGeometry x="-0.1111" y="1" relative="1" as="geometry">
            <mxPoint as="offset" />
          </mxGeometry>
        </mxCell>
        <mxCell id="_7aBfbdObMz06y_fivO7-42" style="edgeStyle=orthogonalEdgeStyle;rounded=0;orthogonalLoop=1;jettySize=auto;html=1;exitX=0.5;exitY=1;exitDx=0;exitDy=0;entryX=0.5;entryY=0;entryDx=0;entryDy=0;" parent="1" source="_7aBfbdObMz06y_fivO7-25" target="_7aBfbdObMz06y_fivO7-40" edge="1">
          <mxGeometry relative="1" as="geometry" />
        </mxCell>
        <mxCell id="_7aBfbdObMz06y_fivO7-43" value="FALSE" style="edgeLabel;html=1;align=center;verticalAlign=middle;resizable=0;points=[];" parent="_7aBfbdObMz06y_fivO7-42" vertex="1" connectable="0">
          <mxGeometry x="-0.04" y="-1" relative="1" as="geometry">
            <mxPoint as="offset" />
          </mxGeometry>
        </mxCell>
        <mxCell id="_7aBfbdObMz06y_fivO7-25" value="OPERATION == &quot;+&quot;" style="rhombus;whiteSpace=wrap;html=1;rounded=1;" parent="1" vertex="1">
          <mxGeometry x="475" y="990" width="160" height="80" as="geometry" />
        </mxCell>
        <mxCell id="_7aBfbdObMz06y_fivO7-27" value="PRINT N1 + N2" style="shape=parallelogram;perimeter=parallelogramPerimeter;whiteSpace=wrap;html=1;fixedSize=1;rounded=1;" parent="1" vertex="1">
          <mxGeometry x="275" y="1010" width="120" height="40" as="geometry" />
        </mxCell>
        <mxCell id="_7aBfbdObMz06y_fivO7-32" value="" style="endArrow=classic;html=1;rounded=0;entryX=0;entryY=0.5;entryDx=0;entryDy=0;" parent="1" target="_7aBfbdObMz06y_fivO7-8" edge="1">
          <mxGeometry width="50" height="50" relative="1" as="geometry">
            <mxPoint x="215" y="570" as="sourcePoint" />
            <mxPoint x="285" y="570" as="targetPoint" />
          </mxGeometry>
        </mxCell>
        <mxCell id="_7aBfbdObMz06y_fivO7-35" value="" style="endArrow=none;html=1;rounded=0;entryX=0;entryY=0.5;entryDx=0;entryDy=0;" parent="1" target="_7aBfbdObMz06y_fivO7-27" edge="1">
          <mxGeometry width="50" height="50" relative="1" as="geometry">
            <mxPoint x="215" y="1030" as="sourcePoint" />
            <mxPoint x="255" y="1000" as="targetPoint" />
          </mxGeometry>
        </mxCell>
        <mxCell id="_7aBfbdObMz06y_fivO7-36" value="" style="endArrow=none;html=1;rounded=0;" parent="1" edge="1">
          <mxGeometry width="50" height="50" relative="1" as="geometry">
            <mxPoint x="215" y="1030" as="sourcePoint" />
            <mxPoint x="215" y="570" as="targetPoint" />
          </mxGeometry>
        </mxCell>
        <mxCell id="_7aBfbdObMz06y_fivO7-38" value="" style="edgeStyle=orthogonalEdgeStyle;rounded=0;orthogonalLoop=1;jettySize=auto;html=1;" parent="1" source="_7aBfbdObMz06y_fivO7-40" target="_7aBfbdObMz06y_fivO7-41" edge="1">
          <mxGeometry relative="1" as="geometry" />
        </mxCell>
        <mxCell id="_7aBfbdObMz06y_fivO7-39" value="TRUE" style="edgeLabel;html=1;align=center;verticalAlign=middle;resizable=0;points=[];" parent="_7aBfbdObMz06y_fivO7-38" vertex="1" connectable="0">
          <mxGeometry x="-0.1111" y="1" relative="1" as="geometry">
            <mxPoint as="offset" />
          </mxGeometry>
        </mxCell>
        <mxCell id="_7aBfbdObMz06y_fivO7-40" value="OPERATION == &quot;-&quot;" style="rhombus;whiteSpace=wrap;html=1;rounded=1;" parent="1" vertex="1">
          <mxGeometry x="475" y="1150" width="160" height="80" as="geometry" />
        </mxCell>
        <mxCell id="_7aBfbdObMz06y_fivO7-41" value="PRINT N1 -&amp;nbsp;&lt;span style=&quot;background-color: initial;&quot;&gt;N2&lt;/span&gt;" style="shape=parallelogram;perimeter=parallelogramPerimeter;whiteSpace=wrap;html=1;fixedSize=1;rounded=1;" parent="1" vertex="1">
          <mxGeometry x="275" y="1170" width="120" height="40" as="geometry" />
        </mxCell>
        <mxCell id="_7aBfbdObMz06y_fivO7-44" value="" style="endArrow=none;html=1;rounded=0;entryX=0;entryY=0.5;entryDx=0;entryDy=0;" parent="1" target="_7aBfbdObMz06y_fivO7-41" edge="1">
          <mxGeometry width="50" height="50" relative="1" as="geometry">
            <mxPoint x="215" y="1190" as="sourcePoint" />
            <mxPoint x="275" y="1180" as="targetPoint" />
          </mxGeometry>
        </mxCell>
        <mxCell id="_7aBfbdObMz06y_fivO7-45" value="" style="endArrow=none;html=1;rounded=0;" parent="1" edge="1">
          <mxGeometry width="50" height="50" relative="1" as="geometry">
            <mxPoint x="215" y="1190" as="sourcePoint" />
            <mxPoint x="215" y="1030" as="targetPoint" />
          </mxGeometry>
        </mxCell>
        <mxCell id="_7aBfbdObMz06y_fivO7-46" style="edgeStyle=orthogonalEdgeStyle;rounded=0;orthogonalLoop=1;jettySize=auto;html=1;exitX=0.5;exitY=1;exitDx=0;exitDy=0;entryX=0.5;entryY=0;entryDx=0;entryDy=0;" parent="1" target="_7aBfbdObMz06y_fivO7-50" edge="1">
          <mxGeometry relative="1" as="geometry">
            <mxPoint x="555" y="1230" as="sourcePoint" />
          </mxGeometry>
        </mxCell>
        <mxCell id="_7aBfbdObMz06y_fivO7-47" value="FALSE" style="edgeLabel;html=1;align=center;verticalAlign=middle;resizable=0;points=[];" parent="_7aBfbdObMz06y_fivO7-46" vertex="1" connectable="0">
          <mxGeometry x="-0.04" y="-1" relative="1" as="geometry">
            <mxPoint as="offset" />
          </mxGeometry>
        </mxCell>
        <mxCell id="_7aBfbdObMz06y_fivO7-48" value="" style="edgeStyle=orthogonalEdgeStyle;rounded=0;orthogonalLoop=1;jettySize=auto;html=1;" parent="1" source="_7aBfbdObMz06y_fivO7-50" target="_7aBfbdObMz06y_fivO7-51" edge="1">
          <mxGeometry relative="1" as="geometry" />
        </mxCell>
        <mxCell id="_7aBfbdObMz06y_fivO7-49" value="TRUE" style="edgeLabel;html=1;align=center;verticalAlign=middle;resizable=0;points=[];" parent="_7aBfbdObMz06y_fivO7-48" vertex="1" connectable="0">
          <mxGeometry x="-0.1111" y="1" relative="1" as="geometry">
            <mxPoint as="offset" />
          </mxGeometry>
        </mxCell>
        <mxCell id="_7aBfbdObMz06y_fivO7-50" value="OPERATION == &quot;*&quot;" style="rhombus;whiteSpace=wrap;html=1;rounded=1;" parent="1" vertex="1">
          <mxGeometry x="475" y="1310" width="160" height="80" as="geometry" />
        </mxCell>
        <mxCell id="_7aBfbdObMz06y_fivO7-51" value="PRINT N1 *&amp;nbsp;&lt;span style=&quot;background-color: initial;&quot;&gt;N2&lt;/span&gt;" style="shape=parallelogram;perimeter=parallelogramPerimeter;whiteSpace=wrap;html=1;fixedSize=1;rounded=1;" parent="1" vertex="1">
          <mxGeometry x="275" y="1330" width="120" height="40" as="geometry" />
        </mxCell>
        <mxCell id="_7aBfbdObMz06y_fivO7-52" value="" style="endArrow=none;html=1;rounded=0;entryX=0;entryY=0.5;entryDx=0;entryDy=0;" parent="1" target="_7aBfbdObMz06y_fivO7-51" edge="1">
          <mxGeometry width="50" height="50" relative="1" as="geometry">
            <mxPoint x="215" y="1350" as="sourcePoint" />
            <mxPoint x="275" y="1340" as="targetPoint" />
          </mxGeometry>
        </mxCell>
        <mxCell id="_7aBfbdObMz06y_fivO7-53" value="" style="endArrow=none;html=1;rounded=0;" parent="1" edge="1">
          <mxGeometry width="50" height="50" relative="1" as="geometry">
            <mxPoint x="215" y="1350" as="sourcePoint" />
            <mxPoint x="215" y="1190" as="targetPoint" />
          </mxGeometry>
        </mxCell>
        <mxCell id="_7aBfbdObMz06y_fivO7-54" style="edgeStyle=orthogonalEdgeStyle;rounded=0;orthogonalLoop=1;jettySize=auto;html=1;exitX=0.5;exitY=1;exitDx=0;exitDy=0;entryX=0.5;entryY=0;entryDx=0;entryDy=0;" parent="1" target="_7aBfbdObMz06y_fivO7-58" edge="1">
          <mxGeometry relative="1" as="geometry">
            <mxPoint x="555" y="1390" as="sourcePoint" />
          </mxGeometry>
        </mxCell>
        <mxCell id="_7aBfbdObMz06y_fivO7-55" value="FALSE" style="edgeLabel;html=1;align=center;verticalAlign=middle;resizable=0;points=[];" parent="_7aBfbdObMz06y_fivO7-54" vertex="1" connectable="0">
          <mxGeometry x="-0.04" y="-1" relative="1" as="geometry">
            <mxPoint as="offset" />
          </mxGeometry>
        </mxCell>
        <mxCell id="_7aBfbdObMz06y_fivO7-56" value="" style="edgeStyle=orthogonalEdgeStyle;rounded=0;orthogonalLoop=1;jettySize=auto;html=1;entryX=1;entryY=0.5;entryDx=0;entryDy=0;" parent="1" source="_7aBfbdObMz06y_fivO7-58" target="_7aBfbdObMz06y_fivO7-62" edge="1">
          <mxGeometry relative="1" as="geometry">
            <mxPoint x="405" y="1540" as="targetPoint" />
          </mxGeometry>
        </mxCell>
        <mxCell id="_7aBfbdObMz06y_fivO7-57" value="TRUE" style="edgeLabel;html=1;align=center;verticalAlign=middle;resizable=0;points=[];" parent="_7aBfbdObMz06y_fivO7-56" vertex="1" connectable="0">
          <mxGeometry x="-0.1111" y="1" relative="1" as="geometry">
            <mxPoint as="offset" />
          </mxGeometry>
        </mxCell>
        <mxCell id="_7aBfbdObMz06y_fivO7-58" value="OPERATION == &quot;/&quot;" style="rhombus;whiteSpace=wrap;html=1;rounded=1;" parent="1" vertex="1">
          <mxGeometry x="475" y="1470" width="160" height="80" as="geometry" />
        </mxCell>
        <mxCell id="_7aBfbdObMz06y_fivO7-62" value="N2 == 0" style="rhombus;whiteSpace=wrap;html=1;rounded=1;" parent="1" vertex="1">
          <mxGeometry x="275" y="1470" width="120" height="80" as="geometry" />
        </mxCell>
        <mxCell id="_7aBfbdObMz06y_fivO7-63" value="" style="edgeStyle=orthogonalEdgeStyle;rounded=0;orthogonalLoop=1;jettySize=auto;html=1;exitX=0;exitY=0.5;exitDx=0;exitDy=0;" parent="1" source="_7aBfbdObMz06y_fivO7-62" target="_7aBfbdObMz06y_fivO7-65" edge="1">
          <mxGeometry relative="1" as="geometry">
            <mxPoint x="265" y="1530" as="sourcePoint" />
          </mxGeometry>
        </mxCell>
        <mxCell id="_7aBfbdObMz06y_fivO7-64" value="TRUE" style="edgeLabel;html=1;align=center;verticalAlign=middle;resizable=0;points=[];" parent="_7aBfbdObMz06y_fivO7-63" vertex="1" connectable="0">
          <mxGeometry x="-0.1111" y="1" relative="1" as="geometry">
            <mxPoint as="offset" />
          </mxGeometry>
        </mxCell>
        <mxCell id="_7aBfbdObMz06y_fivO7-65" value="PRINT &quot;ERROR&quot;" style="shape=parallelogram;perimeter=parallelogramPerimeter;whiteSpace=wrap;html=1;fixedSize=1;rounded=1;" parent="1" vertex="1">
          <mxGeometry x="75" y="1490" width="120" height="40" as="geometry" />
        </mxCell>
        <mxCell id="_7aBfbdObMz06y_fivO7-67" value="" style="endArrow=none;html=1;rounded=0;" parent="1" edge="1">
          <mxGeometry width="50" height="50" relative="1" as="geometry">
            <mxPoint x="135" y="1350" as="sourcePoint" />
            <mxPoint x="215" y="1350" as="targetPoint" />
          </mxGeometry>
        </mxCell>
        <mxCell id="_7aBfbdObMz06y_fivO7-69" style="edgeStyle=orthogonalEdgeStyle;rounded=0;orthogonalLoop=1;jettySize=auto;html=1;entryX=1;entryY=0.5;entryDx=0;entryDy=0;exitX=0.5;exitY=1;exitDx=0;exitDy=0;" parent="1" source="_7aBfbdObMz06y_fivO7-62" target="_7aBfbdObMz06y_fivO7-71" edge="1">
          <mxGeometry relative="1" as="geometry">
            <mxPoint x="345" y="1570" as="sourcePoint" />
            <mxPoint x="334.83000000000004" y="1630" as="targetPoint" />
            <Array as="points">
              <mxPoint x="335" y="1630" />
            </Array>
          </mxGeometry>
        </mxCell>
        <mxCell id="_7aBfbdObMz06y_fivO7-70" value="FALSE" style="edgeLabel;html=1;align=center;verticalAlign=middle;resizable=0;points=[];" parent="_7aBfbdObMz06y_fivO7-69" vertex="1" connectable="0">
          <mxGeometry x="-0.04" y="-1" relative="1" as="geometry">
            <mxPoint x="30" y="1" as="offset" />
          </mxGeometry>
        </mxCell>
        <mxCell id="_7aBfbdObMz06y_fivO7-71" value="PRINT N1 /&amp;nbsp;&lt;span style=&quot;background-color: initial;&quot;&gt;N2&lt;/span&gt;" style="shape=parallelogram;perimeter=parallelogramPerimeter;whiteSpace=wrap;html=1;fixedSize=1;rounded=1;" parent="1" vertex="1">
          <mxGeometry x="75" y="1610" width="120" height="40" as="geometry" />
        </mxCell>
        <mxCell id="_7aBfbdObMz06y_fivO7-73" value="" style="endArrow=none;html=1;rounded=0;entryX=0;entryY=0.5;entryDx=0;entryDy=0;" parent="1" edge="1">
          <mxGeometry width="50" height="50" relative="1" as="geometry">
            <mxPoint x="135" y="1350" as="sourcePoint" />
            <mxPoint x="85" y="1509.66" as="targetPoint" />
            <Array as="points">
              <mxPoint x="35" y="1350" />
              <mxPoint x="35" y="1510" />
            </Array>
          </mxGeometry>
        </mxCell>
        <mxCell id="_7aBfbdObMz06y_fivO7-75" value="" style="endArrow=none;html=1;rounded=0;entryX=0;entryY=0.5;entryDx=0;entryDy=0;" parent="1" target="_7aBfbdObMz06y_fivO7-71" edge="1">
          <mxGeometry width="50" height="50" relative="1" as="geometry">
            <mxPoint x="35" y="1510" as="sourcePoint" />
            <mxPoint x="45" y="1620" as="targetPoint" />
            <Array as="points">
              <mxPoint x="35" y="1630" />
            </Array>
          </mxGeometry>
        </mxCell>
        <mxCell id="_7aBfbdObMz06y_fivO7-76" style="edgeStyle=orthogonalEdgeStyle;rounded=0;orthogonalLoop=1;jettySize=auto;html=1;entryX=0.5;entryY=0;entryDx=0;entryDy=0;exitX=0.5;exitY=1;exitDx=0;exitDy=0;" parent="1" source="_7aBfbdObMz06y_fivO7-58" target="_7aBfbdObMz06y_fivO7-78" edge="1">
          <mxGeometry relative="1" as="geometry">
            <mxPoint x="565" y="1560" as="sourcePoint" />
            <mxPoint x="554.5799999999999" y="1630" as="targetPoint" />
          </mxGeometry>
        </mxCell>
        <mxCell id="_7aBfbdObMz06y_fivO7-77" value="FALSE" style="edgeLabel;html=1;align=center;verticalAlign=middle;resizable=0;points=[];" parent="_7aBfbdObMz06y_fivO7-76" vertex="1" connectable="0">
          <mxGeometry x="-0.04" y="-1" relative="1" as="geometry">
            <mxPoint as="offset" />
          </mxGeometry>
        </mxCell>
        <mxCell id="_7aBfbdObMz06y_fivO7-78" value="PRINT &quot;WRONG OPERATION&quot;" style="shape=parallelogram;perimeter=parallelogramPerimeter;whiteSpace=wrap;html=1;fixedSize=1;rounded=1;" parent="1" vertex="1">
          <mxGeometry x="475" y="1670" width="160" height="40" as="geometry" />
        </mxCell>
        <mxCell id="_7aBfbdObMz06y_fivO7-79" value="" style="endArrow=none;html=1;rounded=0;entryX=0;entryY=0.5;entryDx=0;entryDy=0;" parent="1" target="_7aBfbdObMz06y_fivO7-78" edge="1">
          <mxGeometry width="50" height="50" relative="1" as="geometry">
            <mxPoint x="35" y="1630" as="sourcePoint" />
            <mxPoint x="165" y="1740" as="targetPoint" />
            <Array as="points">
              <mxPoint x="35" y="1690" />
            </Array>
          </mxGeometry>
        </mxCell>
      </root>
    </mxGraphModel>
  </diagram>
</mxfile>
